<mxfile host="app.diagrams.net" modified="2024-04-22T09:53:41.138Z" agent="Mozilla/5.0 (Macintosh; Intel Mac OS X 10_15_7) AppleWebKit/605.1.15 (KHTML, like Gecko) Version/17.4.1 Safari/605.1.15" etag="RLZgnJYr9cp8_jA2XqvP" version="24.2.7" type="github">
  <diagram name="Page-1" id="MLtQk3vHUTkxgNtXT_qU">
    <mxGraphModel dx="1026" dy="619" grid="1" gridSize="10" guides="1" tooltips="1" connect="1" arrows="1" fold="1" page="1" pageScale="1" pageWidth="827" pageHeight="1169" math="0" shadow="0">
      <root>
        <mxCell id="0" />
        <mxCell id="1" parent="0" />
        <mxCell id="Mw8HzguYVF91iIR_zXkX-1" value="Kubernates" style="sketch=0;points=[[0,0,0],[0.25,0,0],[0.5,0,0],[0.75,0,0],[1,0,0],[1,0.25,0],[1,0.5,0],[1,0.75,0],[1,1,0],[0.75,1,0],[0.5,1,0],[0.25,1,0],[0,1,0],[0,0.75,0],[0,0.5,0],[0,0.25,0]];rounded=1;absoluteArcSize=1;arcSize=2;html=1;shadow=0;dashed=0;fontSize=12;align=left;verticalAlign=top;spacing=10;spacingTop=-4;whiteSpace=wrap;fillColor=#f5f5f5;fontColor=#333333;strokeColor=#666666;" vertex="1" parent="1">
          <mxGeometry x="90" y="30" width="1170" height="520" as="geometry" />
        </mxCell>
        <mxCell id="Mw8HzguYVF91iIR_zXkX-12" value="API Namespace" style="sketch=0;points=[[0,0,0],[0.25,0,0],[0.5,0,0],[0.75,0,0],[1,0,0],[1,0.25,0],[1,0.5,0],[1,0.75,0],[1,1,0],[0.75,1,0],[0.5,1,0],[0.25,1,0],[0,1,0],[0,0.75,0],[0,0.5,0],[0,0.25,0]];rounded=1;absoluteArcSize=1;arcSize=2;html=1;strokeColor=none;gradientColor=none;shadow=0;dashed=0;fontSize=12;fontColor=#9E9E9E;align=left;verticalAlign=top;spacing=10;spacingTop=-4;whiteSpace=wrap;fillColor=#F1F8E9;" vertex="1" parent="1">
          <mxGeometry x="160" y="90" width="280" height="420" as="geometry" />
        </mxCell>
        <mxCell id="Mw8HzguYVF91iIR_zXkX-17" style="edgeStyle=orthogonalEdgeStyle;rounded=0;orthogonalLoop=1;jettySize=auto;html=1;" edge="1" parent="1" source="Mw8HzguYVF91iIR_zXkX-3" target="Mw8HzguYVF91iIR_zXkX-4">
          <mxGeometry relative="1" as="geometry" />
        </mxCell>
        <mxCell id="Mw8HzguYVF91iIR_zXkX-3" value="Payment&lt;div&gt;Innitation&lt;/div&gt;" style="rounded=1;whiteSpace=wrap;html=1;" vertex="1" parent="1">
          <mxGeometry x="220" y="140" width="120" height="60" as="geometry" />
        </mxCell>
        <mxCell id="Mw8HzguYVF91iIR_zXkX-4" value="Payment&lt;div&gt;Processor&lt;/div&gt;" style="rounded=1;whiteSpace=wrap;html=1;" vertex="1" parent="1">
          <mxGeometry x="220" y="230" width="120" height="60" as="geometry" />
        </mxCell>
        <mxCell id="Mw8HzguYVF91iIR_zXkX-5" value="Payment&lt;div&gt;Status&lt;/div&gt;" style="rounded=1;whiteSpace=wrap;html=1;" vertex="1" parent="1">
          <mxGeometry x="220" y="320" width="120" height="60" as="geometry" />
        </mxCell>
        <mxCell id="Mw8HzguYVF91iIR_zXkX-13" value="Data Namespace" style="sketch=0;points=[[0,0,0],[0.25,0,0],[0.5,0,0],[0.75,0,0],[1,0,0],[1,0.25,0],[1,0.5,0],[1,0.75,0],[1,1,0],[0.75,1,0],[0.5,1,0],[0.25,1,0],[0,1,0],[0,0.75,0],[0,0.5,0],[0,0.25,0]];rounded=1;absoluteArcSize=1;arcSize=2;html=1;strokeColor=#d6b656;shadow=0;dashed=0;fontSize=12;align=left;verticalAlign=top;spacing=10;spacingTop=-4;whiteSpace=wrap;fillColor=#fff2cc;" vertex="1" parent="1">
          <mxGeometry x="470" y="90" width="320" height="420" as="geometry" />
        </mxCell>
        <mxCell id="Mw8HzguYVF91iIR_zXkX-6" value="Apache Ignite&lt;div&gt;Data Grid&lt;/div&gt;" style="shape=process;whiteSpace=wrap;html=1;backgroundOutline=1;" vertex="1" parent="1">
          <mxGeometry x="490" y="230" width="120" height="60" as="geometry" />
        </mxCell>
        <mxCell id="Mw8HzguYVF91iIR_zXkX-24" style="edgeStyle=orthogonalEdgeStyle;rounded=0;orthogonalLoop=1;jettySize=auto;html=1;" edge="1" parent="1" source="Mw8HzguYVF91iIR_zXkX-7" target="Mw8HzguYVF91iIR_zXkX-20">
          <mxGeometry relative="1" as="geometry">
            <Array as="points">
              <mxPoint x="710" y="440" />
              <mxPoint x="710" y="440" />
            </Array>
          </mxGeometry>
        </mxCell>
        <mxCell id="Mw8HzguYVF91iIR_zXkX-7" value="Postgres" style="shape=cylinder3;whiteSpace=wrap;html=1;boundedLbl=1;backgroundOutline=1;size=15;" vertex="1" parent="1">
          <mxGeometry x="615" y="410" width="60" height="80" as="geometry" />
        </mxCell>
        <mxCell id="Mw8HzguYVF91iIR_zXkX-14" style="edgeStyle=orthogonalEdgeStyle;rounded=0;orthogonalLoop=1;jettySize=auto;html=1;" edge="1" parent="1" source="Mw8HzguYVF91iIR_zXkX-3" target="Mw8HzguYVF91iIR_zXkX-6">
          <mxGeometry relative="1" as="geometry" />
        </mxCell>
        <mxCell id="Mw8HzguYVF91iIR_zXkX-15" style="edgeStyle=orthogonalEdgeStyle;rounded=0;orthogonalLoop=1;jettySize=auto;html=1;entryX=0;entryY=0.5;entryDx=0;entryDy=0;" edge="1" parent="1" source="Mw8HzguYVF91iIR_zXkX-4" target="Mw8HzguYVF91iIR_zXkX-6">
          <mxGeometry relative="1" as="geometry" />
        </mxCell>
        <mxCell id="Mw8HzguYVF91iIR_zXkX-16" style="edgeStyle=orthogonalEdgeStyle;rounded=0;orthogonalLoop=1;jettySize=auto;html=1;" edge="1" parent="1" source="Mw8HzguYVF91iIR_zXkX-5" target="Mw8HzguYVF91iIR_zXkX-6">
          <mxGeometry relative="1" as="geometry" />
        </mxCell>
        <mxCell id="Mw8HzguYVF91iIR_zXkX-18" style="edgeStyle=orthogonalEdgeStyle;rounded=0;orthogonalLoop=1;jettySize=auto;html=1;entryX=0.5;entryY=0;entryDx=0;entryDy=0;entryPerimeter=0;" edge="1" parent="1" source="Mw8HzguYVF91iIR_zXkX-6" target="Mw8HzguYVF91iIR_zXkX-7">
          <mxGeometry relative="1" as="geometry" />
        </mxCell>
        <mxCell id="Mw8HzguYVF91iIR_zXkX-19" value="ML Namespace" style="sketch=0;points=[[0,0,0],[0.25,0,0],[0.5,0,0],[0.75,0,0],[1,0,0],[1,0.25,0],[1,0.5,0],[1,0.75,0],[1,1,0],[0.75,1,0],[0.5,1,0],[0.25,1,0],[0,1,0],[0,0.75,0],[0,0.5,0],[0,0.25,0]];rounded=1;absoluteArcSize=1;arcSize=2;html=1;strokeColor=#b85450;shadow=0;dashed=0;fontSize=12;align=left;verticalAlign=top;spacing=10;spacingTop=-4;whiteSpace=wrap;fillColor=#f8cecc;" vertex="1" parent="1">
          <mxGeometry x="860" y="90" width="280" height="420" as="geometry" />
        </mxCell>
        <mxCell id="Mw8HzguYVF91iIR_zXkX-20" value="Apache&amp;nbsp;&lt;div&gt;Kafka&lt;/div&gt;" style="rounded=1;whiteSpace=wrap;html=1;" vertex="1" parent="1">
          <mxGeometry x="660" y="140" width="120" height="60" as="geometry" />
        </mxCell>
        <mxCell id="Mw8HzguYVF91iIR_zXkX-26" value="Apache Flink" style="rounded=1;whiteSpace=wrap;html=1;" vertex="1" parent="1">
          <mxGeometry x="920" y="140" width="120" height="60" as="geometry" />
        </mxCell>
        <mxCell id="Mw8HzguYVF91iIR_zXkX-27" style="edgeStyle=orthogonalEdgeStyle;rounded=0;orthogonalLoop=1;jettySize=auto;html=1;" edge="1" parent="1" source="Mw8HzguYVF91iIR_zXkX-20" target="Mw8HzguYVF91iIR_zXkX-26">
          <mxGeometry relative="1" as="geometry" />
        </mxCell>
        <mxCell id="Mw8HzguYVF91iIR_zXkX-28" style="edgeStyle=orthogonalEdgeStyle;rounded=0;orthogonalLoop=1;jettySize=auto;html=1;entryX=1;entryY=1;entryDx=0;entryDy=-15;entryPerimeter=0;" edge="1" parent="1" source="Mw8HzguYVF91iIR_zXkX-26" target="Mw8HzguYVF91iIR_zXkX-7">
          <mxGeometry relative="1" as="geometry">
            <Array as="points">
              <mxPoint x="980" y="230" />
              <mxPoint x="770" y="230" />
              <mxPoint x="770" y="475" />
            </Array>
          </mxGeometry>
        </mxCell>
        <mxCell id="Mw8HzguYVF91iIR_zXkX-30" value="Apache Spark" style="rounded=1;whiteSpace=wrap;html=1;" vertex="1" parent="1">
          <mxGeometry x="920" y="260" width="120" height="60" as="geometry" />
        </mxCell>
      </root>
    </mxGraphModel>
  </diagram>
</mxfile>
